<?xml version="1.0" encoding="UTF-8" standalone="no"?><!-- Generator: Gravit.io --><svg xmlns="http://www.w3.org/2000/svg" xmlns:xlink="http://www.w3.org/1999/xlink" style="isolation:isolate" viewBox="200.875 179.54 968.291 407.41" width="968.291pt" height="407.41pt"><g><g><g><path d=" M 438.601 317.102 L 414.971 300.848 Q 400.586 292.328 389.601 303.102 C 380.997 311.541 247.6 442.309 233.163 456.143 C 218.726 469.977 234.476 482.602 244.526 482.656 Q 252.575 482.7 441.485 482.656 L 441.485 505.382 Q 271.076 505.288 244.526 505.382 C 217.976 505.477 174.226 480.227 222.601 434.102 Q 240.074 417.442 373.307 285.697 Q 386.383 274.047 403.608 274.102 C 411.361 274.126 420.815 274.778 437.697 285.697 Q 451.377 294.545 456.601 299.102 L 438.601 317.102 Z " fill="rgb(242,124,0)"/><path d=" M 453.601 328.102 L 475.574 346.3 Q 590.624 229.829 721.773 209.944 Q 852.921 190.059 914.944 266.759 Q 946.192 312.685 945.245 353.876 C 944.298 395.066 924.886 478.869 774.8 478.869 Q 624.714 478.869 475.574 478.869 L 475.574 505.382 L 1028.574 505.382 Q 1117.031 504.622 1133.601 514.102 C 1161.351 529.977 1155.601 551.352 1096.601 559.102 C 1084.512 560.69 1076.547 561.883 1071.601 564.102 C 1069.947 564.844 1070.008 568.023 1072.601 569.102 C 1080.307 571.742 1100.22 570.973 1127.053 565.985 Q 1163.983 559.12 1168.718 535.684 Q 1174.399 495.085 1108.115 486.444 Q 1041.831 477.803 937.67 478.869 Q 915.003 476.975 926.307 463.718 C 937.611 450.461 966.622 411.771 969.601 369.026 C 972.268 330.768 973.771 303.452 926.307 240.245 Q 878.843 177.039 763.437 179.643 Q 587.268 198.102 453.601 328.102 Z " fill="rgb(242,124,0)"/><path d=" M 433.601 448.102 L 433.601 430.102 Q 466.898 430.789 496.601 374.102 Q 548.664 479.664 590.601 373.102 Q 636.601 476.352 684.601 374.102 Q 726.851 480.102 779.601 370.102 Q 801.617 409.445 821.601 416.102 C 841.586 422.758 823.726 438.914 816.601 445.102 C 809.476 451.289 787.039 458.289 776.601 446.102 C 764.533 432.01 780.268 424.906 788.601 431.102 Q 795.789 436.445 800.601 427.102 Q 786.289 419.852 782.601 411.102 Q 754.07 451.008 726.601 450.102 Q 699.133 449.195 682.601 422.102 Q 657.539 451.852 634.601 450.102 Q 611.664 448.352 591.601 422.102 Q 570.773 452.508 544.601 453.102 Q 518.429 453.695 497.601 420.102 Q 471.679 451.93 433.601 448.102 Z " fill="rgb(242,124,0)"/><path d=" M 893.601 398.102 Q 910.976 436.852 926.601 418.102 Q 942.226 399.352 936.601 427.102 L 904.601 444.102 Q 892.164 440.727 888.601 424.102 Q 885.039 407.477 893.601 398.102 Z " fill="rgb(240,128,10)"/><path d=" M 350.601 413.102 C 350.601 391.577 368.077 374.102 389.601 374.102 C 411.126 374.102 428.601 391.577 428.601 413.102 C 428.601 434.626 411.126 452.102 389.601 452.102 C 368.077 452.102 350.601 434.626 350.601 413.102 Z  M 372.6 413.1 C 372.6 408.59 374.39 404.27 377.58 401.08 C 380.77 397.89 385.09 396.1 389.6 396.1 C 394.11 396.1 398.44 397.89 401.62 401.08 C 404.81 404.27 406.6 408.59 406.6 413.1 C 406.6 417.61 404.81 421.94 401.62 425.12 C 398.44 428.31 394.11 430.1 389.6 430.1 C 385.09 430.1 380.77 428.31 377.58 425.12 C 374.39 421.94 372.6 417.61 372.6 413.1 Z " fill-rule="evenodd" fill="rgb(242,124,0)"/><path d=" M 818.601 413.102 C 818.601 391.577 836.077 374.102 857.601 374.102 C 879.126 374.102 896.601 391.577 896.601 413.102 C 896.601 434.626 879.126 452.102 857.601 452.102 C 836.077 452.102 818.601 434.626 818.601 413.102 Z  M 840.6 413.1 C 840.6 408.59 842.39 404.27 845.58 401.08 C 848.77 397.89 853.09 396.1 857.6 396.1 C 862.11 396.1 866.44 397.89 869.62 401.08 C 872.81 404.27 874.6 408.59 874.6 413.1 C 874.6 417.61 872.81 421.94 869.62 425.12 C 866.44 428.31 862.11 430.1 857.6 430.1 C 853.09 430.1 848.77 428.31 845.58 425.12 C 842.39 421.94 840.6 417.61 840.6 413.1 Z " fill-rule="evenodd" fill="rgb(242,124,0)"/></g></g><path d=" M 834.051 562.193 L 834.051 577.027 L 830.406 577.786 L 830.406 575.508 L 830.406 575.508 Q 827.925 578.141 823.926 578.141 L 823.926 578.141 L 823.926 578.141 Q 820.027 578.141 817.395 575.609 L 817.395 575.609 L 817.395 575.609 Q 814.762 573.078 814.762 569.23 L 814.762 569.23 L 814.762 569.23 Q 814.762 565.433 817.395 562.852 L 817.395 562.852 L 817.395 562.852 Q 820.027 560.27 824.027 560.27 L 824.027 560.27 L 824.027 560.27 Q 826.204 560.27 827.9 560.902 L 827.9 560.902 L 827.9 560.902 Q 829.596 561.535 830.304 562.447 L 830.304 562.447 L 830.406 562.902 L 830.406 562.598 L 830.406 561.485 L 830.406 561.029 L 830.406 561.029 Q 830.406 558.396 829.186 557.232 L 829.186 557.232 L 829.186 557.232 Q 827.967 556.068 825.172 556.068 L 825.172 556.068 L 825.172 556.068 Q 824.308 556.068 823.139 556.22 L 823.139 556.22 L 823.139 556.22 Q 821.971 556.371 820.903 556.675 L 820.903 556.675 L 819.633 557.131 L 819.023 557.333 L 818.312 557.586 L 816.737 558.194 L 818.306 553.891 L 818.306 553.891 Q 820.28 553.182 821.901 552.878 L 821.901 552.878 L 821.901 552.878 Q 823.521 552.575 825.343 552.575 L 825.343 552.575 L 825.343 552.575 Q 829.545 552.575 831.418 554.22 L 831.418 554.22 L 831.418 554.22 Q 833.291 555.865 833.671 557.232 L 833.671 557.232 L 833.671 557.232 Q 834.051 558.599 834.051 562.193 L 834.051 562.193 Z  M 830.507 569.281 L 830.507 569.281 L 830.507 569.281 Q 830.507 566.902 828.786 565.282 L 828.786 565.282 L 828.786 565.282 Q 827.064 563.662 824.584 563.662 L 824.584 563.662 L 824.584 563.662 Q 821.85 563.662 820.179 565.18 L 820.179 565.18 L 820.179 565.18 Q 818.509 566.699 818.509 569.18 L 818.509 569.18 L 818.509 569.18 Q 818.509 571.559 820.129 573.129 L 820.129 573.129 L 820.129 573.129 Q 821.749 574.698 824.28 574.698 L 824.28 574.698 L 824.28 574.698 Q 826.862 574.698 828.684 573.129 L 828.684 573.129 L 828.684 573.129 Q 830.507 571.559 830.507 569.281 Z  M 860.477 562.391 L 860.477 576.863 L 856.832 577.774 L 856.832 562.392 L 856.832 562.392 Q 856.832 556.068 851.517 556.068 L 851.517 556.068 L 851.517 556.068 Q 848.479 556.068 846.555 558.041 L 846.555 558.041 L 846.555 558.041 Q 844.631 560.014 844.631 563.252 L 844.631 563.252 L 844.631 576.863 L 840.986 577.774 L 840.986 553.485 L 844.631 552.625 L 844.631 555.713 L 844.631 555.713 Q 847.365 552.423 851.922 552.423 L 851.922 552.423 L 851.922 552.423 Q 855.769 552.423 857.592 554.194 L 857.592 554.194 L 857.592 554.194 Q 859.414 555.965 859.946 557.685 L 859.946 557.685 L 859.946 557.685 Q 860.477 559.406 860.477 562.391 L 860.477 562.391 Z  M 888.878 558.498 L 888.878 558.498 L 870.4 569.635 L 870.4 569.635 Q 871.413 571.84 873.564 573.142 L 873.564 573.142 L 873.564 573.142 Q 875.716 574.445 878.348 574.445 L 878.348 574.445 L 878.348 574.445 Q 880.728 574.445 882.778 573.519 L 882.778 573.519 L 882.778 573.519 Q 884.828 572.593 888.119 569.939 L 888.119 569.939 L 888.119 574.597 L 888.119 574.597 Q 883.158 578.09 878.196 578.09 L 878.196 578.09 L 878.196 578.09 Q 873.083 578.09 869.286 574.293 L 869.286 574.293 L 869.286 574.293 Q 865.489 570.496 865.489 565.332 L 865.489 565.332 L 865.489 565.332 Q 865.489 559.814 869.134 556.118 L 869.134 556.118 L 869.134 556.118 Q 872.779 552.423 878.298 552.423 L 878.298 552.423 L 878.298 552.423 Q 885.335 552.423 888.878 558.498 Z  M 869.236 566.199 L 883.512 557.713 L 883.512 557.713 Q 881.436 556.068 878.348 556.068 L 878.348 556.068 L 878.348 556.068 Q 874.602 556.068 871.919 558.664 L 871.919 558.664 L 871.919 558.664 Q 869.236 561.261 869.236 565.028 L 869.236 565.028 L 869.236 566.199 Z  M 910.344 562.193 L 910.344 577.027 L 906.699 577.786 L 906.699 575.508 L 906.699 575.508 Q 904.218 578.141 900.219 578.141 L 900.219 578.141 L 900.219 578.141 Q 896.32 578.141 893.688 575.609 L 893.688 575.609 L 893.688 575.609 Q 891.055 573.078 891.055 569.23 L 891.055 569.23 L 891.055 569.23 Q 891.055 565.433 893.688 562.852 L 893.688 562.852 L 893.688 562.852 Q 896.32 560.27 900.32 560.27 L 900.32 560.27 L 900.32 560.27 Q 902.497 560.27 904.193 560.902 L 904.193 560.902 L 904.193 560.902 Q 905.889 561.535 906.597 562.447 L 906.597 562.447 L 906.699 562.902 L 906.699 562.598 L 906.699 561.485 L 906.699 561.029 L 906.699 561.029 Q 906.699 558.396 905.479 557.232 L 905.479 557.232 L 905.479 557.232 Q 904.26 556.068 901.465 556.068 L 901.465 556.068 L 901.465 556.068 Q 900.601 556.068 899.432 556.22 L 899.432 556.22 L 899.432 556.22 Q 898.264 556.371 897.197 556.675 L 897.197 556.675 L 895.926 557.131 L 895.316 557.333 L 894.605 557.586 L 893.03 558.194 L 894.599 553.891 L 894.599 553.891 Q 896.574 553.182 898.194 552.878 L 898.194 552.878 L 898.194 552.878 Q 899.814 552.575 901.636 552.575 L 901.636 552.575 L 901.636 552.575 Q 905.838 552.575 907.711 554.22 L 907.711 554.22 L 907.711 554.22 Q 909.584 555.865 909.964 557.232 L 909.964 557.232 L 909.964 557.232 Q 910.344 558.599 910.344 562.193 L 910.344 562.193 Z  M 906.8 569.281 L 906.8 569.281 L 906.8 569.281 Q 906.8 566.902 905.079 565.282 L 905.079 565.282 L 905.079 565.282 Q 903.357 563.662 900.877 563.662 L 900.877 563.662 L 900.877 563.662 Q 898.143 563.662 896.472 565.18 L 896.472 565.18 L 896.472 565.18 Q 894.802 566.699 894.802 569.18 L 894.802 569.18 L 894.802 569.18 Q 894.802 571.559 896.422 573.129 L 896.422 573.129 L 896.422 573.129 Q 898.042 574.698 900.573 574.698 L 900.573 574.698 L 900.573 574.698 Q 903.155 574.698 904.977 573.129 L 904.977 573.129 L 904.977 573.129 Q 906.8 571.559 906.8 569.281 Z  M 949.528 560.822 L 949.528 576.863 L 945.883 577.774 L 945.883 561.482 L 945.883 561.482 Q 945.883 556.068 941.074 556.068 L 941.074 556.068 L 941.074 556.068 Q 934.999 556.068 934.999 563.657 L 934.999 563.657 L 934.999 576.863 L 931.354 577.774 L 931.354 563.657 L 931.354 563.657 Q 931.354 562.139 931.328 560.748 L 931.328 560.748 L 931.328 560.748 Q 931.303 559.356 930.547 557.712 L 930.547 557.712 L 930.547 557.712 Q 929.792 556.068 926.769 556.068 L 926.769 556.068 L 926.769 556.068 Q 920.925 556.068 920.925 563.657 L 920.925 563.657 L 920.925 576.863 L 917.28 577.774 L 917.28 553.485 L 920.925 552.625 L 920.925 555.46 L 920.925 555.46 Q 923.203 552.423 927.354 552.423 L 927.354 552.423 L 927.354 552.423 Q 929.531 552.423 931.05 553.283 L 931.05 553.283 L 931.05 553.283 Q 932.569 554.144 933.885 556.27 L 933.885 556.27 L 933.885 556.27 Q 936.872 552.423 941.428 552.423 L 941.428 552.423 L 941.428 552.423 Q 945.428 552.423 947.098 554.295 L 947.098 554.295 L 947.098 554.295 Q 948.769 556.167 949.149 557.432 L 949.149 557.432 L 949.149 557.432 Q 949.528 558.697 949.528 560.822 L 949.528 560.822 Z  M 960.36 543.378 L 960.304 547.703 L 956.179 548.527 L 956.021 544.224 L 960.36 543.378 Z  M 960.058 552.575 L 960.058 576.875 L 956.413 577.786 L 956.413 553.435 L 960.058 552.575 Z  M 988.459 558.498 L 988.459 558.498 L 969.981 569.635 L 969.981 569.635 Q 970.994 571.84 973.145 573.142 L 973.145 573.142 L 973.145 573.142 Q 975.297 574.445 977.929 574.445 L 977.929 574.445 L 977.929 574.445 Q 980.309 574.445 982.359 573.519 L 982.359 573.519 L 982.359 573.519 Q 984.409 572.593 987.7 569.939 L 987.7 569.939 L 987.7 574.597 L 987.7 574.597 Q 982.739 578.09 977.777 578.09 L 977.777 578.09 L 977.777 578.09 Q 972.664 578.09 968.867 574.293 L 968.867 574.293 L 968.867 574.293 Q 965.07 570.496 965.07 565.332 L 965.07 565.332 L 965.07 565.332 Q 965.07 559.814 968.715 556.118 L 968.715 556.118 L 968.715 556.118 Q 972.36 552.423 977.879 552.423 L 977.879 552.423 L 977.879 552.423 Q 984.916 552.423 988.459 558.498 Z  M 968.817 566.199 L 983.093 557.713 L 983.093 557.713 Q 981.017 556.068 977.929 556.068 L 977.929 556.068 L 977.929 556.068 Q 974.183 556.068 971.5 558.664 L 971.5 558.664 L 971.5 558.664 Q 968.817 561.261 968.817 565.028 L 968.817 565.028 L 968.817 566.199 Z  M 1012.001 562.391 L 1012.001 576.863 L 1008.355 577.774 L 1008.355 562.392 L 1008.355 562.392 Q 1008.355 556.068 1003.04 556.068 L 1003.04 556.068 L 1003.04 556.068 Q 1000.002 556.068 998.078 558.041 L 998.078 558.041 L 998.078 558.041 Q 996.155 560.014 996.155 563.252 L 996.155 563.252 L 996.155 576.863 L 992.51 577.774 L 992.51 553.485 L 996.155 552.625 L 996.155 555.713 L 996.155 555.713 Q 998.888 552.423 1003.445 552.423 L 1003.445 552.423 L 1003.445 552.423 Q 1007.292 552.423 1009.115 554.194 L 1009.115 554.194 L 1009.115 554.194 Q 1010.937 555.965 1011.469 557.685 L 1011.469 557.685 L 1011.469 557.685 Q 1012.001 559.406 1012.001 562.391 L 1012.001 562.391 Z  M 1029.568 573.837 L 1029.568 577.377 L 1029.568 577.377 Q 1028.555 577.48 1027.72 577.582 L 1027.72 577.582 L 1027.72 577.582 Q 1026.884 577.685 1026.378 577.685 L 1026.378 577.685 L 1026.378 577.685 Q 1018.886 577.685 1018.886 569.787 L 1018.886 569.787 L 1018.886 556.625 L 1015.291 556.625 L 1016.354 553.233 L 1018.886 553.233 L 1018.886 547.857 L 1022.531 545.677 L 1022.531 553.233 L 1029.568 553.233 L 1029.568 556.625 L 1022.531 556.625 L 1022.531 569.749 L 1022.531 569.749 Q 1022.531 574.04 1026.834 574.04 L 1026.834 574.04 L 1029.568 573.837 Z  M 1056.551 565.231 L 1056.551 565.231 L 1056.551 565.231 Q 1056.551 570.547 1052.729 574.318 L 1052.729 574.318 L 1052.729 574.318 Q 1048.907 578.09 1043.591 578.09 L 1043.591 578.09 L 1043.591 578.09 Q 1038.376 578.09 1034.554 574.217 L 1034.554 574.217 L 1034.554 574.217 Q 1030.732 570.344 1030.732 565.079 L 1030.732 565.079 L 1030.732 565.079 Q 1030.732 559.865 1034.504 556.144 L 1034.504 556.144 L 1034.504 556.144 Q 1038.275 552.423 1043.591 552.423 L 1043.591 552.423 L 1043.591 552.423 Q 1049.21 552.423 1052.881 556.042 L 1052.881 556.042 L 1052.881 556.042 Q 1056.551 559.662 1056.551 565.231 Z  M 1052.653 565.155 L 1052.653 565.155 L 1052.653 565.155 Q 1052.653 561.369 1050.046 558.718 L 1050.046 558.718 L 1050.046 558.718 Q 1047.438 556.068 1043.642 556.068 L 1043.642 556.068 L 1043.642 556.068 Q 1039.845 556.068 1037.237 558.718 L 1037.237 558.718 L 1037.237 558.718 Q 1034.63 561.369 1034.63 565.155 L 1034.63 565.155 L 1034.63 565.155 Q 1034.63 568.942 1037.288 571.693 L 1037.288 571.693 L 1037.288 571.693 Q 1039.946 574.445 1043.642 574.445 L 1043.642 574.445 L 1043.642 574.445 Q 1047.337 574.445 1049.995 571.693 L 1049.995 571.693 L 1049.995 571.693 Q 1052.653 568.942 1052.653 565.155 Z  M 811.046 566.461 L 811.046 566.461 L 811.046 566.461 Q 811.046 571.553 807.242 574.937 L 807.242 574.937 L 807.242 574.937 Q 803.439 578.321 797.808 578.321 L 797.808 578.321 L 797.808 578.321 Q 793.615 578.321 790.531 576.614 L 790.531 576.614 L 790.531 576.614 Q 787.446 574.907 784.511 570.954 L 784.511 570.954 L 788.344 567.899 L 788.344 567.899 Q 790.621 571.013 792.657 572.271 L 792.657 572.271 L 792.657 572.271 Q 794.694 573.529 797.569 573.529 L 797.569 573.529 L 797.569 573.529 Q 801.222 573.529 803.559 571.732 L 803.559 571.732 L 803.559 571.732 Q 805.895 569.935 805.895 567 L 805.895 567 L 805.895 567 Q 805.895 561.669 799.066 559.872 L 799.066 559.872 L 795.412 558.854 L 795.412 558.854 Q 785.529 556.219 785.529 548.072 L 785.529 548.072 L 785.529 548.072 Q 785.529 543.161 789.183 539.866 L 789.183 539.866 L 789.183 539.866 Q 792.837 536.572 798.347 536.572 L 798.347 536.572 L 798.347 536.572 Q 801.762 536.572 804.427 537.74 L 804.427 537.74 L 804.427 537.74 Q 807.093 538.908 809.968 541.723 L 809.968 541.723 L 806.494 545.377 L 806.494 545.377 Q 804.397 543.161 802.51 542.262 L 802.51 542.262 L 802.51 542.262 Q 800.623 541.364 798.287 541.364 L 798.287 541.364 L 798.287 541.364 Q 794.993 541.364 792.807 543.131 L 792.807 543.131 L 792.807 543.131 Q 790.621 544.898 790.621 547.653 L 790.621 547.653 L 790.621 547.653 Q 790.621 550.169 792.118 551.666 L 792.118 551.666 L 792.118 551.666 Q 793.615 553.164 797.03 554.122 L 797.03 554.122 L 800.504 555.08 L 800.504 555.08 Q 811.046 557.896 811.046 566.461 Z  M 739.311 534.233 L 739.311 576.976 L 735.666 577.938 L 735.666 573.837 L 735.666 573.837 Q 733.59 576.139 731.439 577.114 L 731.439 577.114 L 731.439 577.114 Q 729.287 578.09 726.402 578.09 L 726.402 578.09 L 726.402 578.09 Q 721.288 578.09 717.593 574.344 L 717.593 574.344 L 717.593 574.344 Q 713.897 570.597 713.897 565.383 L 713.897 565.383 L 713.897 565.383 Q 713.897 559.814 717.618 556.042 L 717.618 556.042 L 717.618 556.042 Q 721.339 552.271 726.756 552.271 L 726.756 552.271 L 726.756 552.271 Q 729.54 552.271 731.616 553.207 L 731.616 553.207 L 731.616 553.207 Q 733.692 554.144 735.666 556.371 L 735.666 556.371 L 735.666 534.739 L 739.311 534.233 Z  M 735.919 565.004 L 735.919 565.004 L 735.919 565.004 Q 735.919 561.066 733.388 558.491 L 733.388 558.491 L 733.388 558.491 Q 730.857 555.916 726.958 555.916 L 726.958 555.916 L 726.958 555.916 Q 723.01 555.916 720.402 558.566 L 720.402 558.566 L 720.402 558.566 Q 717.795 561.217 717.795 565.256 L 717.795 565.256 L 717.795 565.256 Q 717.795 569.144 720.402 571.794 L 720.402 571.794 L 720.402 571.794 Q 723.01 574.445 726.908 574.445 L 726.908 574.445 L 726.908 574.445 Q 730.755 574.445 733.337 571.769 L 733.337 571.769 L 733.337 571.769 Q 735.919 569.093 735.919 565.004 Z  M 767.662 558.498 L 767.662 558.498 L 749.183 569.635 L 749.183 569.635 Q 750.196 571.84 752.347 573.142 L 752.347 573.142 L 752.347 573.142 Q 754.499 574.445 757.131 574.445 L 757.131 574.445 L 757.131 574.445 Q 759.511 574.445 761.561 573.519 L 761.561 573.519 L 761.561 573.519 Q 763.612 572.593 766.902 569.939 L 766.902 569.939 L 766.902 574.597 L 766.902 574.597 Q 761.941 578.09 756.98 578.09 L 756.98 578.09 L 756.98 578.09 Q 751.866 578.09 748.069 574.293 L 748.069 574.293 L 748.069 574.293 Q 744.272 570.496 744.272 565.332 L 744.272 565.332 L 744.272 565.332 Q 744.272 559.814 747.918 556.118 L 747.918 556.118 L 747.918 556.118 Q 751.563 552.423 757.081 552.423 L 757.081 552.423 L 757.081 552.423 Q 764.118 552.423 767.662 558.498 Z  M 748.019 566.199 L 762.295 557.713 L 762.295 557.713 Q 760.22 556.068 757.131 556.068 L 757.131 556.068 L 757.131 556.068 Q 753.385 556.068 750.702 558.664 L 750.702 558.664 L 750.702 558.664 Q 748.019 561.261 748.019 565.028 L 748.019 565.028 L 748.019 566.199 Z  M 502.382 562.193 L 502.382 577.027 L 498.737 577.786 L 498.737 575.508 L 498.737 575.508 Q 496.257 578.141 492.257 578.141 L 492.257 578.141 L 492.257 578.141 Q 488.359 578.141 485.726 575.609 L 485.726 575.609 L 485.726 575.609 Q 483.094 573.078 483.094 569.23 L 483.094 569.23 L 483.094 569.23 Q 483.094 565.433 485.726 562.852 L 485.726 562.852 L 485.726 562.852 Q 488.359 560.27 492.358 560.27 L 492.358 560.27 L 492.358 560.27 Q 494.535 560.27 496.231 560.902 L 496.231 560.902 L 496.231 560.902 Q 497.927 561.535 498.636 562.447 L 498.636 562.447 L 498.737 562.902 L 498.737 562.598 L 498.737 561.485 L 498.737 561.029 L 498.737 561.029 Q 498.737 558.396 497.518 557.232 L 497.518 557.232 L 497.518 557.232 Q 496.298 556.068 493.503 556.068 L 493.503 556.068 L 493.503 556.068 Q 492.64 556.068 491.471 556.22 L 491.471 556.22 L 491.471 556.22 Q 490.302 556.371 489.235 556.675 L 489.235 556.675 L 487.965 557.131 L 487.355 557.333 L 486.644 557.586 L 485.068 558.194 L 486.638 553.891 L 486.638 553.891 Q 488.612 553.182 490.232 552.878 L 490.232 552.878 L 490.232 552.878 Q 491.852 552.575 493.675 552.575 L 493.675 552.575 L 493.675 552.575 Q 497.877 552.575 499.75 554.22 L 499.75 554.22 L 499.75 554.22 Q 501.623 555.865 502.003 557.232 L 502.003 557.232 L 502.003 557.232 Q 502.382 558.599 502.382 562.193 L 502.382 562.193 Z  M 498.839 569.281 L 498.839 569.281 L 498.839 569.281 Q 498.839 566.902 497.117 565.282 L 497.117 565.282 L 497.117 565.282 Q 495.396 563.662 492.915 563.662 L 492.915 563.662 L 492.915 563.662 Q 490.182 563.662 488.511 565.18 L 488.511 565.18 L 488.511 565.18 Q 486.84 566.699 486.84 569.18 L 486.84 569.18 L 486.84 569.18 Q 486.84 571.559 488.46 573.129 L 488.46 573.129 L 488.46 573.129 Q 490.08 574.698 492.612 574.698 L 492.612 574.698 L 492.612 574.698 Q 495.194 574.698 497.016 573.129 L 497.016 573.129 L 497.016 573.129 Q 498.839 571.559 498.839 569.281 Z  M 520.709 552.663 L 522.531 552.815 L 520.911 556.308 L 519.899 556.308 L 519.899 556.308 Q 518.228 556.308 516.684 557.425 L 516.684 557.425 L 516.684 557.425 Q 515.14 558.541 514.305 560.19 L 514.305 560.19 L 514.305 560.19 Q 513.469 561.839 513.216 563.235 L 513.216 563.235 L 513.216 563.235 Q 512.963 564.63 512.963 567.117 L 512.963 567.117 L 512.963 576.86 L 509.318 577.774 L 509.318 553.524 L 512.963 552.663 L 512.963 556.878 L 512.963 556.878 Q 515.899 552.663 520.709 552.663 L 520.709 552.663 Z  M 551.338 565.231 L 551.338 565.231 L 551.338 565.231 Q 551.338 570.85 547.549 574.571 L 547.549 574.571 L 547.549 574.571 Q 543.76 578.292 538.064 578.292 L 538.064 578.292 L 538.064 578.292 Q 532.927 578.292 529.062 574.141 L 529.062 574.141 L 529.062 586.089 L 525.518 586.949 L 525.518 553.486 L 529.062 552.676 L 529.062 556.979 L 529.062 556.979 Q 530.69 554.802 533.08 553.638 L 533.08 553.638 L 533.08 553.638 Q 535.47 552.473 538.267 552.473 L 538.267 552.473 L 538.267 552.473 Q 543.709 552.473 547.523 556.169 L 547.523 556.169 L 547.523 556.169 Q 551.338 559.865 551.338 565.231 Z  M 547.439 565.383 L 547.439 565.383 L 547.439 565.383 Q 547.439 561.383 544.857 558.751 L 544.857 558.751 L 544.857 558.751 Q 542.275 556.118 538.327 556.118 L 538.327 556.118 L 538.327 556.118 Q 534.327 556.118 531.695 558.7 L 531.695 558.7 L 531.695 558.7 Q 529.062 561.282 529.062 565.282 L 529.062 565.282 L 529.062 565.282 Q 529.062 569.332 531.619 571.99 L 531.619 571.99 L 531.619 571.99 Q 534.175 574.647 538.074 574.647 L 538.074 574.647 L 538.074 574.647 Q 541.871 574.647 544.655 571.914 L 544.655 571.914 L 544.655 571.914 Q 547.439 569.18 547.439 565.383 Z  M 559.995 535.233 L 559.995 576.875 L 556.349 577.786 L 556.349 536.093 L 559.995 535.233 Z  M 584.346 562.193 L 584.346 577.027 L 580.701 577.786 L 580.701 575.508 L 580.701 575.508 Q 578.22 578.141 574.22 578.141 L 574.22 578.141 L 574.22 578.141 Q 570.322 578.141 567.69 575.609 L 567.69 575.609 L 567.69 575.609 Q 565.057 573.078 565.057 569.23 L 565.057 569.23 L 565.057 569.23 Q 565.057 565.433 567.69 562.852 L 567.69 562.852 L 567.69 562.852 Q 570.322 560.27 574.322 560.27 L 574.322 560.27 L 574.322 560.27 Q 576.499 560.27 578.195 560.902 L 578.195 560.902 L 578.195 560.902 Q 579.89 561.535 580.599 562.447 L 580.599 562.447 L 580.701 562.902 L 580.701 562.598 L 580.701 561.485 L 580.701 561.029 L 580.701 561.029 Q 580.701 558.396 579.481 557.232 L 579.481 557.232 L 579.481 557.232 Q 578.261 556.068 575.467 556.068 L 575.467 556.068 L 575.467 556.068 Q 574.603 556.068 573.434 556.22 L 573.434 556.22 L 573.434 556.22 Q 572.265 556.371 571.198 556.675 L 571.198 556.675 L 569.928 557.131 L 569.318 557.333 L 568.607 557.586 L 567.032 558.194 L 568.601 553.891 L 568.601 553.891 Q 570.575 553.182 572.195 552.878 L 572.195 552.878 L 572.195 552.878 Q 573.815 552.575 575.638 552.575 L 575.638 552.575 L 575.638 552.575 Q 579.84 552.575 581.713 554.22 L 581.713 554.22 L 581.713 554.22 Q 583.586 555.865 583.966 557.232 L 583.966 557.232 L 583.966 557.232 Q 584.346 558.599 584.346 562.193 L 584.346 562.193 Z  M 580.802 569.281 L 580.802 569.281 L 580.802 569.281 Q 580.802 566.902 579.08 565.282 L 579.08 565.282 L 579.08 565.282 Q 577.359 563.662 574.878 563.662 L 574.878 563.662 L 574.878 563.662 Q 572.145 563.662 570.474 565.18 L 570.474 565.18 L 570.474 565.18 Q 568.803 566.699 568.803 569.18 L 568.803 569.18 L 568.803 569.18 Q 568.803 571.559 570.423 573.129 L 570.423 573.129 L 570.423 573.129 Q 572.043 574.698 574.575 574.698 L 574.575 574.698 L 574.575 574.698 Q 577.157 574.698 578.979 573.129 L 578.979 573.129 L 578.979 573.129 Q 580.802 571.559 580.802 569.281 Z  M 601.913 573.837 L 601.913 577.377 L 601.913 577.377 Q 600.9 577.48 600.065 577.582 L 600.065 577.582 L 600.065 577.582 Q 599.23 577.685 598.723 577.685 L 598.723 577.685 L 598.723 577.685 Q 591.231 577.685 591.231 569.787 L 591.231 569.787 L 591.231 556.625 L 587.636 556.625 L 588.699 553.233 L 591.231 553.233 L 591.231 547.857 L 594.876 545.677 L 594.876 553.233 L 601.913 553.233 L 601.913 556.625 L 594.876 556.625 L 594.876 569.749 L 594.876 569.749 Q 594.876 574.04 599.179 574.04 L 599.179 574.04 L 601.913 573.837 Z  M 626.517 558.498 L 626.517 558.498 L 608.038 569.635 L 608.038 569.635 Q 609.051 571.84 611.203 573.142 L 611.203 573.142 L 611.203 573.142 Q 613.354 574.445 615.987 574.445 L 615.987 574.445 L 615.987 574.445 Q 618.366 574.445 620.416 573.519 L 620.416 573.519 L 620.416 573.519 Q 622.467 572.593 625.757 569.939 L 625.757 569.939 L 625.757 574.597 L 625.757 574.597 Q 620.796 578.09 615.835 578.09 L 615.835 578.09 L 615.835 578.09 Q 610.722 578.09 606.925 574.293 L 606.925 574.293 L 606.925 574.293 Q 603.128 570.496 603.128 565.332 L 603.128 565.332 L 603.128 565.332 Q 603.128 559.814 606.773 556.118 L 606.773 556.118 L 606.773 556.118 Q 610.418 552.423 615.936 552.423 L 615.936 552.423 L 615.936 552.423 Q 622.973 552.423 626.517 558.498 Z  M 606.874 566.199 L 621.151 557.713 L 621.151 557.713 Q 619.075 556.068 615.987 556.068 L 615.987 556.068 L 615.987 556.068 Q 612.24 556.068 609.557 558.664 L 609.557 558.664 L 609.557 558.664 Q 606.874 561.261 606.874 565.028 L 606.874 565.028 L 606.874 566.199 Z  M 650.058 562.391 L 650.058 576.863 L 646.413 577.774 L 646.413 562.392 L 646.413 562.392 Q 646.413 556.068 641.097 556.068 L 641.097 556.068 L 641.097 556.068 Q 638.06 556.068 636.136 558.041 L 636.136 558.041 L 636.136 558.041 Q 634.212 560.014 634.212 563.252 L 634.212 563.252 L 634.212 576.863 L 630.567 577.774 L 630.567 553.485 L 634.212 552.625 L 634.212 555.713 L 634.212 555.713 Q 636.946 552.423 641.502 552.423 L 641.502 552.423 L 641.502 552.423 Q 645.35 552.423 647.172 554.194 L 647.172 554.194 L 647.172 554.194 Q 648.995 555.965 649.526 557.685 L 649.526 557.685 L 649.526 557.685 Q 650.058 559.406 650.058 562.391 L 650.058 562.391 Z  M 672.586 570.445 L 672.586 570.445 L 672.586 570.445 Q 672.586 573.736 670.004 575.913 L 670.004 575.913 L 670.004 575.913 Q 667.423 578.09 663.474 578.09 L 663.474 578.09 L 663.474 578.09 Q 658.006 578.09 654.564 573.888 L 654.564 573.888 L 657.348 571.306 L 657.348 571.306 Q 658.715 572.95 660.234 573.698 L 660.234 573.698 L 660.234 573.698 Q 661.752 574.445 663.676 574.445 L 663.676 574.445 L 663.676 574.445 Q 665.853 574.445 667.271 573.384 L 667.271 573.384 L 667.271 573.384 Q 668.688 572.323 668.688 570.606 L 668.688 570.606 L 668.688 570.606 Q 668.688 569.04 667.701 568.156 L 667.701 568.156 L 667.701 568.156 Q 666.714 567.272 664.436 566.818 L 664.436 566.818 L 661.955 566.262 L 661.955 566.262 Q 658.816 565.605 657.095 563.838 L 657.095 563.838 L 657.095 563.838 Q 655.374 562.07 655.374 559.494 L 655.374 559.494 L 655.374 559.494 Q 655.374 556.413 657.88 554.316 L 657.88 554.316 L 657.88 554.316 Q 660.386 552.22 664.081 552.22 L 664.081 552.22 L 664.081 552.22 Q 666.511 552.22 668.435 552.929 L 668.435 552.929 L 668.435 552.929 Q 670.359 553.638 672.384 555.359 L 672.384 555.359 L 670.156 558.042 L 670.156 558.042 Q 668.283 556.827 666.916 556.346 L 666.916 556.346 L 666.916 556.346 Q 665.549 555.865 663.929 555.865 L 663.929 555.865 L 663.929 555.865 Q 661.904 555.865 660.588 556.827 L 660.588 556.827 L 660.588 556.827 Q 659.272 557.789 659.272 559.358 L 659.272 559.358 L 659.272 559.358 Q 659.272 560.776 660.208 561.586 L 660.208 561.586 L 660.208 561.586 Q 661.145 562.396 663.322 562.801 L 663.322 562.801 L 665.296 563.155 L 665.296 563.155 Q 668.739 563.864 670.663 565.788 L 670.663 565.788 L 670.663 565.788 Q 672.586 567.712 672.586 570.445 Z  M 699.114 558.498 L 699.114 558.498 L 680.636 569.635 L 680.636 569.635 Q 681.648 571.84 683.8 573.142 L 683.8 573.142 L 683.8 573.142 Q 685.952 574.445 688.584 574.445 L 688.584 574.445 L 688.584 574.445 Q 690.964 574.445 693.014 573.519 L 693.014 573.519 L 693.014 573.519 Q 695.064 572.593 698.355 569.939 L 698.355 569.939 L 698.355 574.597 L 698.355 574.597 Q 693.394 578.09 688.432 578.09 L 688.432 578.09 L 688.432 578.09 Q 683.319 578.09 679.522 574.293 L 679.522 574.293 L 679.522 574.293 Q 675.725 570.496 675.725 565.332 L 675.725 565.332 L 675.725 565.332 Q 675.725 559.814 679.37 556.118 L 679.37 556.118 L 679.37 556.118 Q 683.015 552.423 688.533 552.423 L 688.533 552.423 L 688.533 552.423 Q 695.57 552.423 699.114 558.498 Z  M 679.471 566.199 L 693.748 557.713 L 693.748 557.713 Q 691.672 556.068 688.584 556.068 L 688.584 556.068 L 688.584 556.068 Q 684.838 556.068 682.155 558.664 L 682.155 558.664 L 682.155 558.664 Q 679.471 561.261 679.471 565.028 L 679.471 565.028 L 679.471 566.199 Z  M 471.341 536.317 L 477 576.614 L 472 577.582 L 469.663 550 L 457.198 578.218 L 445 550 L 442 576.614 L 437.268 577.685 L 443.199 536.317 L 457.215 567.345 L 471.341 536.317 Z  M 260.83 565.231 L 260.83 565.231 L 260.83 565.231 Q 260.83 570.547 257.008 574.318 L 257.008 574.318 L 257.008 574.318 Q 253.185 578.09 247.87 578.09 L 247.87 578.09 L 247.87 578.09 Q 242.655 578.09 238.833 574.217 L 238.833 574.217 L 238.833 574.217 Q 235.011 570.344 235.011 565.079 L 235.011 565.079 L 235.011 565.079 Q 235.011 559.865 238.782 556.144 L 238.782 556.144 L 238.782 556.144 Q 242.554 552.423 247.87 552.423 L 247.87 552.423 L 247.87 552.423 Q 253.489 552.423 257.159 556.042 L 257.159 556.042 L 257.159 556.042 Q 260.83 559.662 260.83 565.231 Z  M 256.932 565.155 L 256.932 565.155 L 256.932 565.155 Q 256.932 561.369 254.324 558.718 L 254.324 558.718 L 254.324 558.718 Q 251.717 556.068 247.92 556.068 L 247.92 556.068 L 247.92 556.068 Q 244.123 556.068 241.516 558.718 L 241.516 558.718 L 241.516 558.718 Q 238.909 561.369 238.909 565.155 L 238.909 565.155 L 238.909 565.155 Q 238.909 568.942 241.567 571.693 L 241.567 571.693 L 241.567 571.693 Q 244.225 574.445 247.92 574.445 L 247.92 574.445 L 247.92 574.445 Q 251.616 574.445 254.274 571.693 L 254.274 571.693 L 254.274 571.693 Q 256.932 568.942 256.932 565.155 Z  M 298.09 560.822 L 298.09 576.863 L 294.445 577.774 L 294.445 561.482 L 294.445 561.482 Q 294.445 556.068 289.636 556.068 L 289.636 556.068 L 289.636 556.068 Q 283.561 556.068 283.561 563.657 L 283.561 563.657 L 283.561 576.863 L 279.916 577.774 L 279.916 563.657 L 279.916 563.657 Q 279.916 562.139 279.891 560.748 L 279.891 560.748 L 279.891 560.748 Q 279.865 559.356 279.11 557.712 L 279.11 557.712 L 279.11 557.712 Q 278.354 556.068 275.331 556.068 L 275.331 556.068 L 275.331 556.068 Q 269.487 556.068 269.487 563.657 L 269.487 563.657 L 269.487 576.863 L 265.842 577.774 L 265.842 553.485 L 269.487 552.625 L 269.487 555.46 L 269.487 555.46 Q 271.765 552.423 275.916 552.423 L 275.916 552.423 L 275.916 552.423 Q 278.093 552.423 279.612 553.283 L 279.612 553.283 L 279.612 553.283 Q 281.131 554.144 282.447 556.27 L 282.447 556.27 L 282.447 556.27 Q 285.434 552.423 289.99 552.423 L 289.99 552.423 L 289.99 552.423 Q 293.99 552.423 295.66 554.295 L 295.66 554.295 L 295.66 554.295 Q 297.331 556.167 297.711 557.432 L 297.711 557.432 L 297.711 557.432 Q 298.09 558.697 298.09 560.822 L 298.09 560.822 Z  M 330.693 565.231 L 330.693 565.231 L 330.693 565.231 Q 330.693 570.85 326.905 574.571 L 326.905 574.571 L 326.905 574.571 Q 323.116 578.292 317.42 578.292 L 317.42 578.292 L 317.42 578.292 Q 312.283 578.292 308.418 574.141 L 308.418 574.141 L 308.418 586.089 L 304.874 586.949 L 304.874 553.486 L 308.418 552.676 L 308.418 556.979 L 308.418 556.979 Q 310.046 554.802 312.436 553.638 L 312.436 553.638 L 312.436 553.638 Q 314.826 552.473 317.623 552.473 L 317.623 552.473 L 317.623 552.473 Q 323.065 552.473 326.879 556.169 L 326.879 556.169 L 326.879 556.169 Q 330.693 559.865 330.693 565.231 Z  M 326.795 565.383 L 326.795 565.383 L 326.795 565.383 Q 326.795 561.383 324.213 558.751 L 324.213 558.751 L 324.213 558.751 Q 321.631 556.118 317.683 556.118 L 317.683 556.118 L 317.683 556.118 Q 313.683 556.118 311.051 558.7 L 311.051 558.7 L 311.051 558.7 Q 308.418 561.282 308.418 565.282 L 308.418 565.282 L 308.418 565.282 Q 308.418 569.332 310.975 571.99 L 310.975 571.99 L 310.975 571.99 Q 313.531 574.647 317.43 574.647 L 317.43 574.647 L 317.43 574.647 Q 321.226 574.647 324.011 571.914 L 324.011 571.914 L 324.011 571.914 Q 326.795 569.18 326.795 565.383 Z  M 353.121 562.193 L 353.121 577.027 L 349.476 577.786 L 349.476 575.508 L 349.476 575.508 Q 346.995 578.141 342.996 578.141 L 342.996 578.141 L 342.996 578.141 Q 339.097 578.141 336.465 575.609 L 336.465 575.609 L 336.465 575.609 Q 333.832 573.078 333.832 569.23 L 333.832 569.23 L 333.832 569.23 Q 333.832 565.433 336.465 562.852 L 336.465 562.852 L 336.465 562.852 Q 339.097 560.27 343.097 560.27 L 343.097 560.27 L 343.097 560.27 Q 345.274 560.27 346.97 560.902 L 346.97 560.902 L 346.97 560.902 Q 348.666 561.535 349.374 562.447 L 349.374 562.447 L 349.476 562.902 L 349.476 562.598 L 349.476 561.485 L 349.476 561.029 L 349.476 561.029 Q 349.476 558.396 348.256 557.232 L 348.256 557.232 L 348.256 557.232 Q 347.037 556.068 344.242 556.068 L 344.242 556.068 L 344.242 556.068 Q 343.378 556.068 342.209 556.22 L 342.209 556.22 L 342.209 556.22 Q 341.041 556.371 339.973 556.675 L 339.973 556.675 L 338.703 557.131 L 338.093 557.333 L 337.382 557.586 L 335.807 558.194 L 337.376 553.891 L 337.376 553.891 Q 339.351 553.182 340.971 552.878 L 340.971 552.878 L 340.971 552.878 Q 342.591 552.575 344.413 552.575 L 344.413 552.575 L 344.413 552.575 Q 348.615 552.575 350.488 554.22 L 350.488 554.22 L 350.488 554.22 Q 352.361 555.865 352.741 557.232 L 352.741 557.232 L 352.741 557.232 Q 353.121 558.599 353.121 562.193 L 353.121 562.193 Z  M 349.577 569.281 L 349.577 569.281 L 349.577 569.281 Q 349.577 566.902 347.856 565.282 L 347.856 565.282 L 347.856 565.282 Q 346.134 563.662 343.654 563.662 L 343.654 563.662 L 343.654 563.662 Q 340.92 563.662 339.249 565.18 L 339.249 565.18 L 339.249 565.18 Q 337.579 566.699 337.579 569.18 L 337.579 569.18 L 337.579 569.18 Q 337.579 571.559 339.199 573.129 L 339.199 573.129 L 339.199 573.129 Q 340.819 574.698 343.35 574.698 L 343.35 574.698 L 343.35 574.698 Q 345.932 574.698 347.754 573.129 L 347.754 573.129 L 347.754 573.129 Q 349.577 571.559 349.577 569.281 Z  M 379.547 562.391 L 379.547 576.863 L 375.902 577.774 L 375.902 562.392 L 375.902 562.392 Q 375.902 556.068 370.587 556.068 L 370.587 556.068 L 370.587 556.068 Q 367.549 556.068 365.625 558.041 L 365.625 558.041 L 365.625 558.041 Q 363.702 560.014 363.702 563.252 L 363.702 563.252 L 363.702 576.863 L 360.056 577.774 L 360.056 553.485 L 363.702 552.625 L 363.702 555.713 L 363.702 555.713 Q 366.435 552.423 370.992 552.423 L 370.992 552.423 L 370.992 552.423 Q 374.839 552.423 376.662 554.194 L 376.662 554.194 L 376.662 554.194 Q 378.484 555.965 379.016 557.685 L 379.016 557.685 L 379.016 557.685 Q 379.547 559.406 379.547 562.391 L 379.547 562.391 Z  M 391.951 541.967 L 394.178 544.879 L 386.433 550.233 L 384.661 547.873 L 391.951 541.967 Z  M 390.078 552.524 L 390.078 576.875 L 386.433 577.786 L 386.433 553.334 L 390.078 552.524 Z  M 414.479 562.193 L 414.479 577.027 L 410.834 577.786 L 410.834 575.508 L 410.834 575.508 Q 408.353 578.141 404.354 578.141 L 404.354 578.141 L 404.354 578.141 Q 400.456 578.141 397.823 575.609 L 397.823 575.609 L 397.823 575.609 Q 395.191 573.078 395.191 569.23 L 395.191 569.23 L 395.191 569.23 Q 395.191 565.433 397.823 562.852 L 397.823 562.852 L 397.823 562.852 Q 400.456 560.27 404.455 560.27 L 404.455 560.27 L 404.455 560.27 Q 406.632 560.27 408.328 560.902 L 408.328 560.902 L 408.328 560.902 Q 410.024 561.535 410.733 562.447 L 410.733 562.447 L 410.834 562.902 L 410.834 562.598 L 410.834 561.485 L 410.834 561.029 L 410.834 561.029 Q 410.834 558.396 409.615 557.232 L 409.615 557.232 L 409.615 557.232 Q 408.395 556.068 405.6 556.068 L 405.6 556.068 L 405.6 556.068 Q 404.736 556.068 403.568 556.22 L 403.568 556.22 L 403.568 556.22 Q 402.399 556.371 401.332 556.675 L 401.332 556.675 L 400.062 557.131 L 399.452 557.333 L 398.74 557.586 L 397.165 558.194 L 398.735 553.891 L 398.735 553.891 Q 400.709 553.182 402.329 552.878 L 402.329 552.878 L 402.329 552.878 Q 403.949 552.575 405.772 552.575 L 405.772 552.575 L 405.772 552.575 Q 409.973 552.575 411.847 554.22 L 411.847 554.22 L 411.847 554.22 Q 413.72 555.865 414.1 557.232 L 414.1 557.232 L 414.1 557.232 Q 414.479 558.599 414.479 562.193 L 414.479 562.193 Z  M 410.935 569.281 L 410.935 569.281 L 410.935 569.281 Q 410.935 566.902 409.214 565.282 L 409.214 565.282 L 409.214 565.282 Q 407.493 563.662 405.012 563.662 L 405.012 563.662 L 405.012 563.662 Q 402.278 563.662 400.608 565.18 L 400.608 565.18 L 400.608 565.18 Q 398.937 566.699 398.937 569.18 L 398.937 569.18 L 398.937 569.18 Q 398.937 571.559 400.557 573.129 L 400.557 573.129 L 400.557 573.129 Q 402.177 574.698 404.708 574.698 L 404.708 574.698 L 404.708 574.698 Q 407.29 574.698 409.113 573.129 L 409.113 573.129 L 409.113 573.129 Q 410.935 571.559 410.935 569.281 Z  M 232.124 569.995 L 232.124 569.995 L 231.225 575.985 L 231.225 575.985 Q 229.009 577.363 227.062 577.902 L 227.062 577.902 L 227.062 577.902 Q 225.115 578.441 222.6 578.441 L 222.6 578.441 L 222.6 578.441 Q 214.094 578.441 207.985 572.271 L 207.985 572.271 L 207.985 572.271 Q 201.875 566.102 201.875 557.536 L 201.875 557.536 L 201.875 557.536 Q 201.875 548.731 207.955 542.592 L 207.955 542.592 L 207.955 542.592 Q 214.034 536.452 222.72 536.452 L 222.72 536.452 L 222.72 536.452 Q 224.936 536.452 226.823 536.871 L 226.823 536.871 L 226.823 536.871 Q 228.709 537.291 231.225 538.369 L 231.225 538.369 L 232.124 544.119 L 232.124 544.119 Q 229.368 542.562 227.182 541.903 L 227.182 541.903 L 227.182 541.903 Q 224.996 541.244 222.779 541.244 L 222.779 541.244 L 222.779 541.244 Q 215.951 541.244 211.459 545.916 L 211.459 545.916 L 211.459 545.916 Q 206.966 550.588 206.966 557.596 L 206.966 557.596 L 206.966 557.596 Q 206.966 564.245 211.548 568.947 L 211.548 568.947 L 211.548 568.947 Q 216.131 573.649 222.6 573.649 L 222.6 573.649 L 222.6 573.649 Q 225.056 573.649 226.823 572.99 L 226.823 572.99 L 226.823 572.99 Q 228.59 572.331 232.124 569.995 Z " fill="rgb(255,255,255)"/></g></svg>